# xmcd CD database file generated by libcdaudio 0.99.4
# 
# Track frame offsets:
#       150
#       16735
#       33995
#       57520
# 
# Disc length: 1083 seconds
# 
# Revision: 1
# Processed by: cddbd v1.4PL0 Copyright (c) Steve Scherf et al.
# Submitted via: libcdaudio 0.99.4
# 
DISCID=28043904
DTITLE=HIM - Join Me
DYEAR=1900
DGENRE=
TTITLE0=Join Me
TTITLE1=It's All Tears
TTITLE2=Rebel Yell
TTITLE3=Dark Sekret Love
EXTD=
EXTT0=
EXTT1=
EXTT2=
EXTT3=
PLAYORDER=
